inDegrees=no
num_controls=7
num_derivatives=13
num_iterations=129
num_multipliers=7
num_parameters=0
num_slacks=7
num_states=26
objective=0.497100
objective_accelerations=0.032224
objective_balance=0.003272
objective_effort=0.034991
objective_height=0.421123
objective_ligament=0.005490
solver_duration=1502.280876
status=Solve_Succeeded
success=true
DataType=double
version=3
OpenSimVersion=4.5
endheader
time	/jointset/ground_pelvis/pelvis_tilt/value	/jointset/ground_pelvis/pelvis_tx/value	/jointset/ground_pelvis/pelvis_ty/value	/jointset/hip_r/hip_flexion_r/value	/jointset/hip_r/hip_adduction_r/value	/jointset/hip_r/hip_rotation_r/value	/jointset/back/lumbar_extension/value	/jointset/patellofemoral_r/patellar_flexion_r/value	/jointset/knee_r/knee_flexion_r/value	/jointset/knee_r/knee_adduction_r/value	/jointset/knee_r/knee_rotation_r/value	/jointset/ankle_r/ankle_angle_r/value	/jointset/subtalar_r/subtalar_angle_r/value	/jointset/ground_pelvis/pelvis_tilt/speed	/jointset/ground_pelvis/pelvis_tx/speed	/jointset/ground_pelvis/pelvis_ty/speed	/jointset/hip_r/hip_flexion_r/speed	/jointset/hip_r/hip_adduction_r/speed	/jointset/hip_r/hip_rotation_r/speed	/jointset/back/lumbar_extension/speed	/jointset/patellofemoral_r/patellar_flexion_r/speed	/jointset/knee_r/knee_flexion_r/speed	/jointset/knee_r/knee_adduction_r/speed	/jointset/knee_r/knee_rotation_r/speed	/jointset/ankle_r/ankle_angle_r/speed	/jointset/subtalar_r/subtalar_angle_r/speed	/forceset/tau_hip_flexion_r	/forceset/tau_hip_adduction_r	/forceset/tau_hip_rotation_r	/forceset/tau_knee_flexion_r	/forceset/tau_ankle_angle_r	/forceset/tau_subtalar_angle_r	/forceset/tau_lumbar_extension	lambda_cid13_p0	lambda_cid14_p0	lambda_cid14_p1	lambda_cid14_p2	lambda_cid14_p3	lambda_cid14_p4	lambda_cid14_p5	/jointset/ground_pelvis/pelvis_tilt/accel	/jointset/ground_pelvis/pelvis_tx/accel	/jointset/ground_pelvis/pelvis_ty/accel	/jointset/hip_r/hip_flexion_r/accel	/jointset/hip_r/hip_adduction_r/accel	/jointset/hip_r/hip_rotation_r/accel	/jointset/back/lumbar_extension/accel	/jointset/patellofemoral_r/patellar_flexion_r/accel	/jointset/knee_r/knee_flexion_r/accel	/jointset/knee_r/knee_adduction_r/accel	/jointset/knee_r/knee_rotation_r/accel	/jointset/ankle_r/ankle_angle_r/accel	/jointset/subtalar_r/subtalar_angle_r/accel	gamma_cid13_p0	gamma_cid14_p0	gamma_cid14_p1	gamma_cid14_p2	gamma_cid14_p3	gamma_cid14_p4	gamma_cid14_p5
1.5	-0.105884168267288	0.06275983731124375	0.8717761944208736	0.66045973152162	-0.2274827551225896	-0.144249690279731	-0.2787053687002434	0.6426381981548414	0.6426381981548428	0.04197488486308285	0.1744642880586505	0.2581076508485893	0.05874614103132395	0.2267057049255523	0.1160182996558295	0.3206679432345566	-1.428973650832497	0.01788737079100515	-0.2784788622748659	0.6979523147446747	-1.73265002505832	-1.732650025058318	0.2790250722664727	0.0003175945906620445	-0.6201782909596909	-0.1543507820707495	-0.06391378238912113	-0.01672236476027668	0.006597916034042097	-0.32127619304618	0.05282085187116545	-0.01150873392194437	0.1213572914930341	-34.47405893014245	-24.79810881114122	-5.26044052151399	-3.361454350882261	3.99029779473923	-662.8701135635611	57.65322738078574	0.04550737824423358	0.2503623366792171	-0.4418328462166025	-0.698559087151558	-0.01604985161079954	-0.565657569231237	1.190191076474289	-1.005661269751248	-1.005661269751248	0.3652778111415917	-0.000762941453459239	-0.4714020772939578	-0.02962096231639114	1.141748291737725e-07	1.527007403673062e-07	-5.450335068913264e-07	1.246038943853966e-06	-2.197576568687407e-08	1.780991387045174e-07	-8.896152716413833e-07
1.51	-0.1036152679231295	0.06393238741759688	0.8749600781316417	0.6461369831406355	-0.2273053974197015	-0.1470618665413363	-0.2716671717146353	0.6252637948447022	0.6252637948447022	0.0447851140609677	0.1744676228778835	0.2518829281483962	0.05720037625360781	0.2270409468233065	0.1184743950334548	0.3160431507471954	-1.435378974771984	0.01758783052067284	-0.283942408694093	0.7095873949413638	-1.741985774822218	-1.741985774822216	0.2829982311361585	0.0003424521745398159	-0.624676766549673	-0.1547708136825486	-0.05849239094750016	-0.01862327332960817	0.005952966315041887	-0.3182123474948937	0.05691411016560474	-0.01225253235139103	0.1163133860895187	-35.35816759618779	-23.36491561767409	-5.223496666830487	-3.491886562079497	3.468088386722501	-659.906029704328	57.80217362320442	0.0225349558331743	0.2406338073174306	-0.4826129249509726	-0.5819432277702107	-0.03621291105219962	-0.5344010564557264	1.135213375925547	-0.8608282137658443	-0.8608282137659652	0.4099244014663921	0.003291892020006179	-0.4256332241669569	-0.04345746584119174	1.236497415856013e-07	1.528414480452273e-07	-6.734943508786105e-07	1.258417046737854e-06	-8.606251872969677e-09	1.818314203704039e-07	-9.763204585143736e-07
1.52	-0.1013440146879349	0.0651289786115289	0.8780957518225451	0.6317560966841714	-0.2271308964787782	-0.1499282178427714	-0.2645156145501283	0.6078033747601125	0.6078033747601113	0.04763439274286627	0.1744710426296975	0.24561590810744	0.05565135851872777	0.2271762831327472	0.1208265171716096	0.3110259392616535	-1.440601265928389	0.01731601839803073	-0.2893138702408135	0.7206243505244266	-1.74985337994839	-1.749853379948389	0.2868349690692175	0.0003345811068825194	-0.62863775911232	-0.155001373503528	-0.05307099950587402	-0.02052418189893967	0.005308016596041624	-0.3151485019436074	0.06100736846004404	-0.01299633078083768	0.1112694806860033	-36.20874182712362	-21.94075843495401	-5.185298913591116	-3.62575899363148	2.943090189442309	-657.0901483801553	58.02509952844141	0.00552626058152683	0.2295676887851007	-0.5203166458527781	-0.4619525305351126	-0.0105042220727282	-0.54724059473012	1.070566153749052	-0.7120323422063172	-0.7120323422063169	0.3379936238162571	-0.007308671760422894	-0.36390547182697	0.008273395847598061	1.331790819645122e-07	1.528011574839793e-07	-7.994229909617021e-07	1.269510502508793e-06	4.629690017763387e-09	1.848131255770223e-07	-1.058893201933301e-06
1.53	-0.09907242622497099	0.06634854188307085	0.8811793418157639	0.6173289463503663	-0.2269590518001267	-0.1528479917421493	-0.2572567431384719	0.5902716891989481	0.5902716891989452	0.05052139536294992	0.1744744475493728	0.2393119731529749	0.05410088237392604	0.2271081604412584	0.1230655653696278	0.3056319626894899	-1.444626763810325	0.01705445799914288	-0.294617820987095	0.7310405132700252	-1.756230523568336	-1.756230523568335	0.2905487280564633	0.0003387380152007004	-0.632056927035367	-0.1550664479266826	-0.04758161123570597	-0.02253161257566938	0.004681882626002561	-0.3121634489039931	0.06522827179927691	-0.01389096998953569	0.1061817189346127	-37.02131593236275	-20.49006044468052	-5.217214938662783	-3.73788593625439	2.430388740567667	-654.3662818327815	58.1603751133403	-0.01795388509371805	0.2179925669654651	-0.5579150334572643	-0.3425248203431329	-0.03362942069086045	-0.5182859033293852	1.01072855444147	-0.562603644219507	-0.5626036442194496	0.3854822725735529	0.003350205225801933	-0.3170565917514722	-0.009790713351858828	1.427662520584478e-07	1.525685562936141e-07	-9.226611643965893e-07	1.279239020722222e-06	1.772371174012692e-08	1.869973432956682e-07	-1.137075224182286e-06
1.54	-0.09680251345913805	0.06758987947292405	0.8842071966691493	0.6028676057570778	-0.2267897522198429	-0.1558200678667405	-0.2498969926554642	0.572683822547118	0.5726838225471139	0.05344501862018498	0.1744777085047507	0.2329766196914379	0.05255057691450177	0.2268411437065525	0.1251813808338574	0.2998789112949607	-1.44743931782507	0.01680699872449315	-0.2997743152834652	0.740800164794672	-1.761089598081511	-1.76108959808151	0.2941590964995013	0.0003057882474339233	-0.6349214605267307	-0.1549672364280318	-0.04209222296553784	-0.02453904325240166	0.004055748655963466	-0.3091783958643787	0.06944917513850979	-0.01478560919823372	0.1010939571832221	-37.79144089591325	-19.0489840526241	-5.2474048525454	-3.85418487691377	1.914948477624762	-651.8031365218897	58.37431140879799	-0.03425254806191833	0.2049211420273721	-0.5921316103259965	-0.2193637570966665	-0.007683997225105668	-0.5177493047478683	0.9392639095586969	-0.4084185208518124	-0.4084185208520149	0.3173155149746873	-0.01473000697736358	-0.2529785854903349	0.04113058020870468	1.526653196788687e-07	1.516830419317895e-07	-1.051913809921959e-06	1.283375569703547e-06	3.155606118056337e-08	1.890304645388099e-07	-1.212953593224557e-06
1.55	-0.09453628325430931	0.06885173004610506	0.8871757777304009	0.5883842702120178	-0.2266229133190049	-0.1588432103928997	-0.2424430225868542	0.5550550603730567	0.5550550603730531	0.0564041848935409	0.174480722218911	0.2266154227057052	0.05100202314533613	0.2263710947244002	0.1271649210210892	0.2937827040289701	-1.449017025129939	0.01656107700854753	-0.3048226759327851	0.7498726734592928	-1.764396910116774	-1.764396910116772	0.297658154824178	0.0002884698062768168	-0.6372205656866197	-0.154718015766463	-0.0364960714394176	-0.02675702835055468	0.003437558459301068	-0.3063359447444942	0.07388336305839437	-0.01579357058717533	0.09593525429168391	-38.51469305692854	-17.55140013862351	-5.322143946646901	-3.957409633188945	1.387115392274148	-649.3291683248978	58.55985291748697	-0.05843675962626565	0.1915094191491759	-0.6265164392389434	-0.09534189692729407	-0.03291211029225351	-0.4934132032083087	0.8730680247082026	-0.2520322773462237	-0.252032277346275	0.3637028039749668	0.003716428909053383	-0.2037445774037873	0.02059527679728563	1.629237474928488e-07	1.50045258046327e-07	-1.188096173290709e-06	1.281069197613098e-06	4.62390925570403e-08	1.908894963645231e-07	-1.286177753137354e-06
1.56	-0.09227576467656899	0.07013270381357388	0.8900817664880921	0.57389148405796	-0.2264585068056288	-0.161915843277189	-0.234901962695639	0.5374011961321465	0.537401196132143	0.05939784211269575	0.1744833525869784	0.2202341610491405	0.04945671707631943	0.2256988182888722	0.1290060196914141	0.2873604505828422	-1.44932943962462	0.01632052123208444	-0.3096723869094752	0.7582181293156914	-1.76611001145135	-1.766110011451351	0.3010572856592869	0.0002291190288763253	-0.6389343946931328	-0.1543176963982412	-0.03089991991327861	-0.02897501344870771	0.00281936826263863	-0.3034934936246097	0.07831755097827892	-0.01680153197611694	0.09077655140014573	-39.18676294002995	-16.06389371367272	-5.395002879581848	-4.065098061457606	0.8564194298981692	-647.025723345719	58.82707355163726	-0.07469803873705519	0.1764328386459934	-0.6573408463534486	0.0336948049409449	-0.006610809328494196	-0.4780193702218941	0.7938533479143272	-0.08957638071511576	-0.08957638071511571	0.2973300170610982	-0.02313647422612926	-0.1359233548151857	0.07135032153931949	1.738497526411624e-07	1.495870386017464e-07	-1.330917835647799e-06	1.281942125868437e-06	6.008006850495987e-08	1.988266869441019e-07	-1.36208767888522e-06
1.57	-0.09002293434033064	0.07143134252663395	0.8929219748858247	0.5594018733248047	-0.2262965277188845	-0.1650363241482554	-0.2272812904131417	0.519738226528317	0.5197382265283165	0.06242490472416291	0.1744855301870144	0.2138386903665589	0.0479161157038215	0.2248320831359257	0.130694050273076	0.280632439838536	-1.448370006950221	0.01607526964504791	-0.3143914289290186	0.7657805102056958	-1.766203057595348	-1.766203057595348	0.3043332611870169	0.0002036568492600436	-0.6400570541626108	-0.15377742180541	-0.02516683098818854	-0.0313773165293192	0.002193437921257216	-0.3008491087361053	0.0830266038342482	-0.0179709488764463	0.08552528108543313	-39.80356536510275	-14.50414332520986	-5.532796517547607	-4.153907649745149	0.3106849491900235	-644.8391381831913	59.03175083272594	-0.09792221681792922	0.1608533170963316	-0.6878048960591441	0.1604893445651837	-0.03343145045393503	-0.4637348580988772	0.7170579128307754	0.07292055035045436	0.07292055035054347	0.3392958668412344	0.007563321344607033	-0.08500078546958491	0.04904476474816911	1.85610229457393e-07	1.506032747082684e-07	-1.482038621740313e-06	1.286789179556011e-06	7.286847516718276e-08	2.143615759660128e-07	-1.441354811926923e-06
1.58	-0.08777982354827063	0.07274603457534466	0.8956934484345962	0.5449285412875686	-0.2261369909714231	-0.168202973087573	-0.2195890688310868	0.5020827443193663	0.5020827443193686	0.0654840400001498	0.174487416047489	0.2074350803807915	0.04638165282457051	0.2237549094531997	0.1322166868215395	0.2736134807906317	-1.44607370044079	0.01583205337550327	-0.3189060005596948	0.772527989227191	-1.764612532475641	-1.764612532475641	0.3074718185632365	0.0001707711166060806	-0.6405622553303082	-0.1530899977488529	-0.0194337420630984	-0.0337796196099291	0.001567507579875864	-0.2982047238476008	0.0877356566902175	-0.01914036577677569	0.08027401077072056	-40.36424534437754	-12.95324586963895	-5.668108160364149	-4.247719335374407	-0.2422384134417387	-642.8080766214149	59.31920191905589	-0.1167857446929806	0.143354032006307	-0.7155305070731106	0.3010695719472319	-0.006203745830115532	-0.4371252924484569	0.6308729742124554	0.2471378720258251	0.247137872025825	0.2698463867588527	-0.02462118483337219	-0.01243169445908055	0.1007802142844961	1.96782475453674e-07	1.531621809732495e-07	-1.621108111287956e-06	1.295790149161804e-06	8.279855960400981e-08	2.367984187415049e-07	-1.514890110481306e-06
